<?xml version="1.0" encoding="UTF-8" standalone="no"?>
<!-- Created with Inkscape (http://www.inkscape.org/) -->
<svg
   xmlns:dc="http://purl.org/dc/elements/1.1/"
   xmlns:cc="http://creativecommons.org/ns#"
   xmlns:rdf="http://www.w3.org/1999/02/22-rdf-syntax-ns#"
   xmlns:svg="http://www.w3.org/2000/svg"
   xmlns="http://www.w3.org/2000/svg"
   xmlns:sodipodi="http://sodipodi.sourceforge.net/DTD/sodipodi-0.dtd"
   xmlns:inkscape="http://www.inkscape.org/namespaces/inkscape"
   width="412.5"
   height="203.807175"
   viewBox="0 0 198.4375 98.043606"
   version="1.1"
   id="svg8"
   inkscape:version="0.92.4 (5da689c313, 2019-01-14)"
   sodipodi:docname="WWE 2K Logo.svg">
  <title
     id="title864">WWE 2K Logo</title>
  <defs
     id="defs2" />
  <sodipodi:namedview
     id="base"
     pagecolor="#ffffff"
     bordercolor="#666666"
     borderopacity="1.0"
     inkscape:pageopacity="0.0"
     inkscape:pageshadow="2"
     inkscape:zoom="0.476"
     inkscape:cx="-66.407177"
     inkscape:cy="184.7911"
     inkscape:document-units="px"
     inkscape:current-layer="layer1"
     showgrid="false"
     inkscape:pagecheckerboard="true"
     units="px"
     inkscape:showpageshadow="false"
     inkscape:snap-global="true"
     showguides="false"
     inkscape:window-width="1920"
     inkscape:window-height="1051"
     inkscape:window-x="-9"
     inkscape:window-y="-9"
     inkscape:window-maximized="1"
     fit-margin-top="0"
     fit-margin-left="0"
     fit-margin-right="0"
     fit-margin-bottom="0" />
  <metadata
     id="metadata5">
    <rdf:RDF>
      <cc:Work
         rdf:about="">
        <dc:format>image/svg+xml</dc:format>
        <dc:type
           rdf:resource="http://purl.org/dc/dcmitype/StillImage" />
        <dc:title>WWE 2K Logo</dc:title>
      </cc:Work>
    </rdf:RDF>
  </metadata>
  <g
     inkscape:label="Layer 1"
     inkscape:groupmode="layer"
     id="layer1"
     transform="translate(-33.072917,-115.68652)">
    <g
       id="g831"
       transform="matrix(0.99999767,0,0,0.99999767,7.307542e-5,3.8408253e-4)">
      <path
         inkscape:connector-curvature="0"
         id="path969"
         d="m 135.19249,115.68715 c -1.39437,-0.0246 -2.70458,0.56517 -3.61162,1.56658 -1.90693,-2.05405 -5.41902,-2.0953 -7.26037,0.3008 a 0.91388345,0.91031515 0 0 0 -10e-4,0.001 l -21.4349,27.9802 -11.268194,-25.64842 c -0.814788,-1.85375 -2.596087,-2.83183 -4.344083,-2.8352 -1.747997,-0.003 -3.533541,0.96753 -4.355507,2.81814 a 0.91388345,0.91031515 0 0 0 0,7.2e-4 L 71.521141,145.55279 50.111999,117.55771 a 0.91388345,0.91031515 0 0 0 -7.2e-4,-7.2e-4 c -0.879809,-1.14734 -2.238836,-1.83279 -3.688003,-1.85956 a 0.91388345,0.91031515 0 0 0 -7.2e-4,0 c -1.354768,-0.024 -2.634185,0.53018 -3.538804,1.48339 -1.344127,-1.36851 -3.405583,-1.88084 -5.2493,-1.08516 -2.280265,0.98406 -3.417963,3.57676 -2.594325,5.91219 a 0.91388345,0.91031515 0 0 0 0.001,0.003 c 0,0 12.213067,34.24889 17.387737,47.23425 1.462187,3.67951 4.486932,11.39905 7.331766,18.68519 -10.913819,3.3776 -17.789826,7.00214 -21.452709,9.57584 -0.007,0.004 -0.0149,0.01 -0.0222,0.0142 a 0.91388345,0.91031515 0 0 0 -0.0363,0.0242 c -1.322217,0.94827 -2.230466,1.684 -2.814204,2.18026 -0.26026,0.22125 -0.43442,0.37679 -0.526129,0.45726 -0.17462,0.12944 -0.34173,0.26876 -0.496889,0.42096 -3.7e-4,3.7e-4 -0.591759,0.71657 -0.598969,0.72534 -10e-4,0.004 -0.740269,1.88137 -0.740309,1.88161 a 0.91388345,0.91031515 0 0 0 0,0.001 c 0,0 0.0138,0.35641 0.015,0.36194 10e-4,0.006 0.003,0.0124 0.006,0.0236 0.006,0.0209 0.0124,0.0515 0.0213,0.0903 0.0186,0.0778 0.0453,0.18895 0.0771,0.32213 0.0635,0.26635 0.14805,0.62125 0.232729,0.97635 0.0847,0.3551 0.1692,0.71073 0.23273,0.97707 0.0318,0.13316 0.0585,0.2437 0.0771,0.32142 0.01,0.0388 0.0164,0.0695 0.0213,0.0903 0.003,0.011 0.004,0.0187 0.006,0.0242 10e-4,0.006 0.003,0.008 0.003,0.008 a 0.91388345,0.91031515 0 0 0 0.15206,0.32853 c 1.4e-4,1.8e-4 2.130685,1.63543 2.130985,1.63555 a 0.91388345,0.91031515 0 0 0 0.0321,0.0124 c 3e-4,1.1e-4 1.201028,0.28093 1.207198,0.2823 0.0152,8.9e-4 0.2125,0.011 0.379809,0.0171 a 0.91388345,0.91031515 0 0 0 0.1,0.007 c 0.003,0 0.008,-0.001 0.0124,-0.001 -0.006,0.001 -0.0234,0.004 0.0879,0.004 a 0.91388345,0.91031515 0 0 0 0.0258,-0.001 c 0.287729,-0.008 0.491429,-0.037 0.586819,-0.0512 a 0.91388345,0.91031515 0 0 0 7.2e-4,0 c 0.445639,-0.0667 0.694298,-0.15545 0.632509,-0.13796 0.181569,-0.0514 0.286039,-0.0883 0.371939,-0.1165 a 0.91388345,0.91031515 0 0 0 7.2e-4,0 c 0.207539,-0.0687 0.444939,-0.15077 0.758868,-0.25815 0.629739,-0.21533 1.541727,-0.52663 2.717825,-0.91021 2.349736,-0.76638 5.742549,-1.81526 9.842531,-2.90135 a 0.91388345,0.91031515 0 0 0 0.01,-0.003 c 6.032439,-1.58476 9.109763,-2.13029 12.346197,-2.67805 1.714387,4.40915 3.487643,9.01227 3.490243,9.01904 0,0 0,7.1e-4 0,7.1e-4 0.730199,1.94561 2.518734,3.01737 4.301259,3.07344 1.782703,0.056 3.635735,-0.90127 4.487577,-2.79753 a 0.91388345,0.91031515 0 0 0 7.16e-4,-7.1e-4 l 5.287133,-11.78883 c 3.39324,-0.29043 6.600373,-0.47612 9.587688,-0.54398 l 5.334261,12.28019 a 0.91388345,0.91031515 0 0 0 0,7.1e-4 c 0.828641,1.90637 2.670063,2.88603 4.453313,2.85157 1.78275,-0.0344 3.58352,-1.08416 4.33765,-3.02011 v -7e-4 c 2.8e-4,-6.9e-4 1.62114,-4.13846 2.77136,-7.08267 0.14955,0.0273 0.19524,0.0704 0.39051,0.0704 2.5777,0 4.61109,-1.64442 5.45562,-3.88125 5.80208,0.81803 9.95605,1.64552 9.95605,1.64552 l -0.055,-0.0124 c 2.21199,0.59529 4.54909,-0.4777 5.53201,-2.53939 l 5.49918,-11.5385 a 0.91388345,0.91031515 0 0 0 7e-4,-0.001 c 0.43269,-0.91085 0.5316,-1.92027 0.35052,-2.88856 h 29.77179 a 0.91388345,0.91031515 0 0 0 7.1e-4,0 c 0.37731,-2.7e-4 0.74768,-0.0778 1.11369,-0.16639 0.3151,0.0664 0.63273,0.12352 0.9552,0.12504 a 0.91388345,0.91031515 0 0 0 0.006,0 h 15.95873 a 0.91388345,0.91031515 0 0 0 7.2e-4,0 c 2.24025,-0.001 4.18446,-1.57332 4.64678,-3.75679 a 0.91388345,0.91031515 0 0 0 7.1e-4,0 l 1.48634,-7.02936 9.14648,9.3554 c 0.89439,0.91459 2.12281,1.4309 3.40459,1.43075 h 20.97499 c 2.09094,-5.9e-4 3.72705,-1.30077 4.40049,-2.94969 0.67346,-1.64891 0.4137,-3.71746 -1.083,-5.17191 l -19.5323,-18.96983 22.15018,-17.81692 c 1.70568,-1.37242 2.11165,-3.52018 1.4942,-5.26009 -0.61746,-1.73994 -2.2878,-3.15614 -4.48043,-3.15594 h -21.11931 c -1.14194,3.2e-4 -2.24648,0.41028 -3.10976,1.15485 a 0.91388345,0.91031515 0 0 0 0,7.2e-4 l -4.28625,3.69922 c 0.0634,-2.58658 -2.02556,-4.85447 -4.72958,-4.85479 H 177.6376 a 0.91388345,0.91031515 0 0 0 -0.001,0 c -1.14674,0.001 -2.23158,0.43561 -3.08763,1.17335 -1.4759,-0.72314 -3.08393,-1.2281 -4.58038,-1.21317 h -7.2e-4 c -1.16264,0.011 -2.34925,0.0803 -4.11348,0.0803 H 139.6871 c -1.1965,0 -2.20189,-0.0822 -3.45814,-0.0249 1.26276,-3.44867 3.34748,-9.09441 3.34748,-9.09441 a 0.91388345,0.91031515 0 0 0 0.003,-0.006 c 1.09879,-3.02681 -1.15405,-6.28547 -4.38478,-6.34242 z"
         style="color:#000000;font-style:normal;font-variant:normal;font-weight:bold;font-stretch:normal;font-size:medium;line-height:1.25;font-family:'Agency FB';-inkscape-font-specification:'Agency FB Bold';font-variant-ligatures:normal;font-variant-position:normal;font-variant-caps:normal;font-variant-numeric:normal;font-variant-alternates:normal;font-feature-settings:normal;text-indent:0;text-align:center;text-decoration:none;text-decoration-line:none;text-decoration-style:solid;text-decoration-color:#000000;letter-spacing:0px;word-spacing:0px;text-transform:none;writing-mode:lr-tb;direction:ltr;text-orientation:mixed;dominant-baseline:auto;baseline-shift:baseline;text-anchor:middle;white-space:normal;shape-padding:0;clip-rule:nonzero;display:inline;overflow:visible;visibility:visible;opacity:1;isolation:auto;mix-blend-mode:normal;color-interpolation:sRGB;color-interpolation-filters:linearRGB;solid-color:#000000;solid-opacity:1;vector-effect:none;fill:#77787b;fill-opacity:1;fill-rule:nonzero;stroke:none;stroke-width:1.82401276;stroke-linecap:butt;stroke-linejoin:round;stroke-miterlimit:4;stroke-dasharray:none;stroke-dashoffset:0;stroke-opacity:1;color-rendering:auto;image-rendering:auto;shape-rendering:auto;text-rendering:auto;enable-background:accumulate" />
      <path
         inkscape:connector-curvature="0"
         id="path960"
         d="m 135.17606,116.59737 a 3.8383108,3.8233238 0 0 0 -3.51953,2.15042 l -0.06,0.12091 a 3.8383108,3.8233238 0 0 0 -6.55075,-0.76089 l -22.37649,29.20965 -11.890716,-27.06493 a 3.8383108,3.8233238 0 0 0 -7.026206,-0.0138 L 71.731762,147.32995 49.38527,118.10963 a 3.8383108,3.8233238 0 0 0 -2.979104,-1.50188 3.8383108,3.8233238 0 0 0 -3.477414,2.0665 3.8383108,3.8233238 0 0 0 -7.026206,3.03218 c 0,0 12.223096,34.27143 17.376337,47.20294 1.533657,3.85942 4.717541,11.98238 7.681555,19.57692 -11.457458,3.44783 -18.485205,7.20053 -22.146608,9.77782 a 3.8383108,3.8233238 0 0 0 -0.03,0.0193 c -1.301407,0.93334 -2.187836,1.65191 -2.754935,2.13403 -0.258119,0.21943 -0.429919,0.37222 -0.526149,0.45654 a 3.8383108,3.8233238 0 0 0 -0.450469,0.37902 c -3.7e-4,3.7e-4 -0.477389,0.57781 -0.477609,0.57813 -2e-4,3.2e-4 -0.598909,1.52368 -0.598949,1.52392 -4e-5,2.5e-4 0.677349,2.8407 0.677489,2.84089 1.4e-4,1.8e-4 1.740177,1.33251 1.740477,1.33263 3.1e-4,1.1e-4 0.973288,0.23108 0.973778,0.23112 3.7e-4,4e-5 0.242709,0.0124 0.401919,0.0164 l -0.003,0.003 c 0.004,0 10e-4,-0.003 0.006,-0.003 0.0372,9.3e-4 0.0709,0.005 0.0942,0.005 0.245759,-0.007 0.375149,-0.0274 0.477589,-0.0427 0.409809,-0.0613 0.437599,-0.0903 0.518299,-0.11306 0.16138,-0.0457 0.23495,-0.0726 0.334109,-0.10521 0.19833,-0.0657 0.4349,-0.14743 0.750299,-0.25528 0.630809,-0.2157 1.548717,-0.5283 2.730665,-0.91379 2.362545,-0.77055 5.771569,-1.82482 9.891811,-2.91627 l 0.006,-0.003 c 6.499767,-1.70778 9.654991,-2.23868 13.165025,-2.83024 1.851096,4.7525 3.766533,9.73158 3.766533,9.73158 a 3.8383108,3.8233238 0 0 0 7.099032,0.22328 l 5.509877,-12.28517 c 3.835806,-0.3386 7.452541,-0.55161 10.789883,-0.61012 l 5.582697,12.85263 a 3.8383108,3.8233238 0 0 0 7.101169,-0.13716 c 0,0 1.89246,-4.83057 3.04407,-7.78099 0.325,0.0618 0.62225,0.18844 0.96876,0.18844 2.47792,0 4.38544,-1.68925 4.88879,-3.9808 6.27607,0.85842 10.70636,1.76355 10.70636,1.76355 a 3.8383108,3.8233238 0 0 0 4.4683,-2.05084 l 5.49918,-11.53852 a 3.8383108,3.8233238 0 0 0 -0.07,-3.41049 h 31.01825 a 3.8383108,3.8233238 0 0 0 1.11725,-0.1664 3.8383108,3.8233238 0 0 0 0.95734,0.12587 h 15.95919 a 3.8383108,3.8233238 0 0 0 3.75368,-3.03433 l 1.83973,-8.69973 10.34226,10.57851 a 3.8383108,3.8233238 0 0 0 2.74995,1.15555 h 20.97538 a 3.8383108,3.8233238 0 0 0 2.67925,-6.55984 l -20.26904,-19.68427 22.95118,-18.46119 a 3.8383108,3.8233238 0 0 0 -2.41228,-6.79754 h -21.1193 a 3.8383108,3.8233238 0 0 0 -2.51151,0.93299 l -6.2195,5.36747 0.35839,-1.67751 a 3.8383108,3.8233238 0 0 0 -3.75298,-4.62295 h -15.87571 a 3.8383108,3.8233238 0 0 0 -2.90057,1.32551 c -1.50554,-0.83912 -3.28524,-1.38019 -4.76028,-1.36533 -1.1317,0.011 -2.33453,0.0804 -4.12279,0.0804 h -26.16711 c -1.44799,0 -2.46411,-0.14483 -3.95286,-0.0164 -0.29834,0.0257 -0.63273,0.28794 -0.94663,0.3527 1.04067,-2.87217 3.93144,-10.6809 3.93144,-10.6809 a 3.8383108,3.8233238 0 0 0 -3.54166,-5.12285 z"
         style="color:#000000;font-style:normal;font-variant:normal;font-weight:bold;font-stretch:normal;font-size:medium;line-height:1.25;font-family:'Agency FB';-inkscape-font-specification:'Agency FB Bold';font-variant-ligatures:normal;font-variant-position:normal;font-variant-caps:normal;font-variant-numeric:normal;font-variant-alternates:normal;font-feature-settings:normal;text-indent:0;text-align:center;text-decoration:none;text-decoration-line:none;text-decoration-style:solid;text-decoration-color:#000000;letter-spacing:0px;word-spacing:0px;text-transform:none;writing-mode:lr-tb;direction:ltr;text-orientation:mixed;dominant-baseline:auto;baseline-shift:baseline;text-anchor:middle;white-space:normal;shape-padding:0;clip-rule:nonzero;display:inline;overflow:visible;visibility:visible;opacity:1;isolation:auto;mix-blend-mode:normal;color-interpolation:sRGB;color-interpolation-filters:linearRGB;solid-color:#000000;solid-opacity:1;vector-effect:none;fill:#000000;fill-opacity:1;fill-rule:nonzero;stroke:none;stroke-width:7.66085386;stroke-linecap:butt;stroke-linejoin:round;stroke-miterlimit:4;stroke-dasharray:none;stroke-dashoffset:0;stroke-opacity:1;color-rendering:auto;image-rendering:auto;shape-rendering:auto;text-rendering:auto;enable-background:accumulate" />
      <path
         inkscape:connector-curvature="0"
         id="path857"
         d="m 169.92528,135.78305 c -0.97455,0.01 -2.26857,0.0811 -4.14811,0.0811 h -26.08562 c -3.23983,0 -4.21199,-0.4485 -6.51856,1.09733 -1.54753,1.03715 -2.55354,3.0781 -2.71702,3.74605 l -2.5576,11.60173 h 14.34082 l 0.79063,-4.06483 h 15.67088 l -0.37362,2.18471 -33.48661,18.69531 -2.32134,10.62967 h 43.51494 l 2.86219,-13.21218 h -18.56509 l 17.56097,-8.72748 c 4.33702,-2.05478 4.38938,-6.22097 4.67259,-7.6045 l 1.83458,-8.49761 c 0.23679,-1.94207 0.37261,-3.60455 -1.03826,-4.8448 -1.0757,-0.94561 -1.81153,-1.10095 -3.43577,-1.08452 z m 7.59669,0.0398 -9.41847,43.88997 h 15.90784 l 3.31338,-15.72426 15.31433,15.72426 h 20.90708 l -23.28819,-22.71035 26.23008,-21.17962 h -21.05224 l -14.83684,12.84853 2.74832,-12.84853 z"
         style="font-style:normal;font-variant:normal;font-weight:bold;font-stretch:normal;font-size:medium;line-height:1.25;font-family:'Agency FB';-inkscape-font-specification:'Agency FB Bold';font-variant-ligatures:normal;font-variant-caps:normal;text-align:center;letter-spacing:0px;word-spacing:0px;writing-mode:lr-tb;text-anchor:middle;fill:#ed1c24;fill-opacity:1;stroke:none;stroke-width:0.41795546" />
      <path
         style="fill:#ed1c24;fill-opacity:1;stroke-width:0.48514482"
         inkscape:connector-curvature="0"
         class="st2"
         d="m 82.196645,187.68007 -3.007904,6.98607 c 5.72472,-0.58216 11.061304,-0.92177 15.864249,-0.92177 l -3.250478,-7.32568 c -3.20195,0.43664 -6.45243,0.87326 -9.605867,1.26138 z m 28.769095,-2.47424 c -1.16435,3.00791 -2.42572,6.06431 -3.49305,8.87815 11.78902,0.92177 18.7751,2.81385 18.7751,2.81385 l 5.48215,-11.54646 c -7.47123,-0.24257 -14.31178,-0.24257 -20.7642,-0.14554 z m -69.618295,16.20384 c -2.425725,1.74653 -3.153434,2.57127 -3.250463,2.57127 -0.0971,0.0971 5.385109,-1.98909 13.778113,-4.22077 7.907855,-2.08612 11.886048,-2.81383 16.203839,-3.49304 -0.679208,-1.64949 -1.261377,-3.39601 -2.086126,-5.23957 -13.535544,3.63858 -21.00678,7.81084 -24.645363,10.38211 z"
         id="path850" />
      <path
         inkscape:connector-curvature="0"
         id="path852"
         d="m 39.843728,120.39042 c 0,0 12.225127,34.39717 17.270617,47.10797 1.843557,4.65739 5.724749,14.55416 9.217793,23.57784 0.679198,1.74653 1.407307,3.49323 2.086506,5.23974 2.813839,7.13163 4.899586,12.71049 4.899586,12.71049 l 6.307215,-14.1181 3.00807,-6.98538 5.14226,-11.64374 4.560153,10.38201 3.250728,7.22878 6.549174,15.13643 c 0,0 2.57165,-6.64681 5.72507,-14.70021 0.67921,-2.95939 1.94052,-5.96683 3.10487,-9.12029 2.81383,-7.13163 5.48239,-14.11749 6.88931,-17.70757 4.89996,-12.7108 17.27063,-47.10797 17.27063,-47.10797 l -33.71718,68.93946 c -3.735618,-9.46032 -13.87542,-34.54267 -13.87542,-34.54267 -0.679211,1.74653 -10.139094,25.08235 -13.874709,34.54267 z m 6.791827,0 26.343236,51.86241 14.457535,-36.96863 14.214874,36.96863 26.4884,-51.86241 -26.24573,34.39679 -14.457544,-33.03828 -14.602709,33.03828 z m 63.068495,76.07073 c -0.67921,0 -1.26102,0.58254 -1.26102,1.26174 0,0.67919 0.58181,1.26099 1.26102,1.26099 0.67919,0 1.26172,-0.5818 1.26172,-1.26099 0,-0.6792 -0.58253,-1.26174 -1.26172,-1.26174 z m 0,0.0483 c 0.48513,0 1.06744,0.48505 1.06744,1.16424 0,0.6792 -0.48529,1.16494 -1.06744,1.16494 -0.5822,0 -1.06676,-0.58276 -1.06676,-1.16494 0,-0.67919 0.48456,-1.16424 1.06676,-1.16424 z m -0.48463,0.48535 v 1.4069 h 0.24266 c 0,0 -7e-5,-0.48542 0.0485,-0.43694 h 0.24265 l 0.33946,0.58282 h 0.24267 l -0.48534,-0.58282 c 0.2425,-0.14555 0.33945,-0.14503 0.33945,-0.48463 0,-0.38805 -0.14574,-0.48533 -0.48533,-0.48533 z m 0.33945,0.0968 h 0.24266 c 0.14548,0 0.24267,5.4e-4 0.24267,0.0975 0,0.24257 -0.24308,0.24267 -0.34015,0.24267 h -0.0485 v 0.14517 h -0.0968 z"
         style="fill:#ffffff;fill-opacity:1;stroke-width:0.48514482" />
    </g>
  </g>
  <style
     id="style836">.st0{display:none}.st1{display:inline}.st2{fill:#d7182a}.st3{fill:#fff}</style>
  <style
     id="style836-5">.st0{display:none}.st1{display:inline}.st2{fill:#d7182a}.st3{fill:#fff}</style>
</svg>